<?xml version="1.0" encoding="utf-8"?>
<!-- Generator: Adobe Illustrator 24.3.0, SVG Export Plug-In . SVG Version: 6.00 Build 0)  -->
<svg version="1.1" id="Capa_1" xmlns="http://www.w3.org/2000/svg" xmlns:xlink="http://www.w3.org/1999/xlink" x="0px" y="0px"
	 viewBox="0 0 841.89 595.28" style="enable-background:new 0 0 841.89 595.28;" xml:space="preserve">
<style type="text/css">
	.st0{fill:#EC6608;}
</style>
<path class="st0" d="M389.42,318.3l0.1,0.08h15.74l-31.92-50.12L389.42,318.3z M436.74,318.38h15.74l0.1-0.08l16.08-50.04
	L436.74,318.38z M421.59,238.78l7.74,5.78l-8.35,16.37l-8.32-16.37l7.7-5.78h-22.38l1.19,13.04L421,265.58l21.82-13.75l1.19-13.04
	H421.59z M414.63,221.61l-9.16,2.41l-7.26,11.59h45.57l-7.34-11.59l-8.66-2.41H414.63z M133.28,243.44l72.55-44.48l-9.38-3.98
	L133.28,243.44z M636.17,198.96l72.55,44.48l-63.17-48.46L636.17,198.96z M94.92,259.72l95.14-67.46l-9.01-3.82L94.92,259.72z
	 M651.94,192.27l95.14,67.46l-86.13-71.28L651.94,192.27z M60.46,274.35l114.57-88.47l-8.18-3.47L60.46,274.35z M666.97,185.88
	l114.56,88.47l-106.38-91.94L666.97,185.88z M373.6,265.06l3.06-7.2l-206.1-78.99L373.6,265.06z M465.34,257.86l3.06,7.2
	l203.04-86.19L465.34,257.86z M378.09,254.49l2.46-5.79l-194.94-73.86L378.09,254.49z M461.45,248.7l2.46,5.79l192.48-79.65
	L461.45,248.7z M381.98,245.34l2.58-6.08l-183.22-68.63L381.98,245.34z M457.44,239.26l2.58,6.08l180.64-74.71L457.44,239.26z
	 M386,235.86l8-18.84l-176.05-50.85L386,235.86z M448,217.03l8,18.84l168.05-69.68L448,217.03z"/>
<g>
	<path class="st0" d="M681.19,413.77c-0.04,6.73-0.07,11.4-0.07,14.02h5.24c0-2.62-0.02-7.57-0.07-14.84
		c-0.04-7.27-0.07-17.54-0.07-30.82c0-4.75,0.02-10.76,0.05-18h-5.1c0,0.36,0,0.74,0.01,1.1c0.04,8.08,0.06,14.61,0.06,19.59
		C681.26,397.39,681.23,407.05,681.19,413.77 M686.33,354.68c0.02-5.35,0.03-10.24,0.03-14.61h-5.24c0,4.97,0.01,9.83,0.02,14.61
		H686.33z"/>
	<path d="M139.14,429.3l4.79-2.13c-2.18-4.85-8.22-18.26-18.11-40.24c-9.89-21.98-16.96-37.82-21.19-47.51h-3.8
		c-6.16,13.8-13.96,31.08-23.42,51.86c-9.46,20.78-14.9,32.74-16.35,35.89l4.49,2c0.83-1.79,2.63-5.84,5.4-12.15
		c2.77-6.31,17.44-39.23,21.1-47.52c3.67-8.3,7.05-15.89,10.15-22.79l0.13-0.03c2.83,6.25,6.09,13.51,9.79,21.79
		c3.7,8.28,18.96,42.62,21.29,47.96C135.73,421.78,137.64,426.07,139.14,429.3 M230.53,360.87c0.04-5.48,0.07-12.41,0.07-20.8h-5.24
		c0,0.61,0.02,4.22,0.07,10.81c0.04,6.59,0.07,15.07,0.07,25.42c0,3.15-0.01,6.4-0.03,9.76c-0.02,3.36-0.03,6.81-0.03,10.35
		c0,9.87-2.66,17.18-7.99,21.91c-5.33,4.74-12.14,7.11-20.44,7.11c-7.9,0-14.62-2.41-20.14-7.24c-5.53-4.83-8.29-12.09-8.29-21.78
		c0-3.54-0.01-6.99-0.03-10.35c-0.02-3.36-0.03-6.62-0.03-9.76c0-10.35,0.02-18.7,0.07-25.06c0.04-6.36,0.07-10.08,0.07-11.17h-5.24
		c0,8.39,0.02,15.32,0.07,20.8c0.04,5.48,0.07,10.25,0.07,14.31c0,4.98-0.01,9.23-0.03,12.74c-0.02,3.52-0.03,6.56-0.03,9.14
		c0,5.07,0.71,9.53,2.13,13.4c1.42,3.87,3.55,7.24,6.39,10.12c2.88,2.93,6.41,5.2,10.58,6.81c4.17,1.62,8.99,2.42,14.45,2.42
		c5.5,0,10.33-0.82,14.48-2.46c4.15-1.64,7.66-3.9,10.55-6.78c2.84-2.84,4.97-6.2,6.39-10.09c1.42-3.89,2.13-8.36,2.13-13.43
		c0-2.58-0.01-5.62-0.03-9.14c-0.02-3.52-0.03-7.76-0.03-12.74C230.46,371.13,230.48,366.35,230.53,360.87 M266.55,370.63
		c-1.77-2.51-2.65-5.36-2.65-8.55c0-3.13,0.72-5.81,2.16-8.03c1.44-2.22,3.06-3.96,4.85-5.22c2.71-1.87,5.71-3.23,9.01-4.08
		c3.3-0.85,6.52-1.27,9.66-1.27c2.88,0,5.5,0.1,7.86,0.29c2.36,0.2,3.93,0.36,4.72,0.49l-0.39-4.65c-0.35-0.04-1.82-0.14-4.42-0.29
		c-2.6-0.15-5.17-0.23-7.7-0.23c-4.02,0-7.97,0.56-11.86,1.67c-3.89,1.11-7.21,2.65-9.96,4.62c-2.71,1.92-4.89,4.26-6.55,7.01
		c-1.66,2.75-2.49,5.98-2.49,9.7c0,4.67,1.34,8.59,4.03,11.76c2.69,3.17,6.76,6.06,12.22,8.68c1.27,0.61,3.08,1.4,5.44,2.36
		c2.36,0.96,4.19,1.79,5.5,2.49c5.46,2.79,9.11,5.7,10.94,8.71c1.83,3.01,2.75,6.01,2.75,8.98c0,3.53-0.78,6.5-2.33,8.91
		c-1.55,2.41-3.88,4.52-6.98,6.3c-2.62,1.48-5.61,2.57-8.98,3.26c-3.36,0.7-7.01,1.04-10.94,1.04c-3.58,0-6.56-0.12-8.94-0.36
		c-2.38-0.24-3.92-0.4-4.62-0.49l0.26,4.65c0.7,0.09,2.38,0.21,5.05,0.36c2.66,0.15,5.31,0.23,7.93,0.23
		c4.19,0,8.31-0.42,12.35-1.24c4.04-0.83,7.72-2.2,11.04-4.13c3.45-2.01,6.19-4.48,8.22-7.4c2.03-2.93,3.05-6.64,3.05-11.14
		c0-4.37-1.41-8.45-4.23-12.25c-2.82-3.8-7.02-7.05-12.61-9.76c-1.75-0.83-3.67-1.68-5.76-2.55c-2.1-0.87-3.82-1.64-5.18-2.29
		C271.8,375.67,268.32,373.15,266.55,370.63 M385.14,344.63c5.61,0.02,8.75,0.03,9.4,0.03v-4.39c-0.57,0-4.16,0.01-10.78,0.03
		c-6.62,0.02-14.88,0.03-24.8,0.03c-6.81,0-13.23-0.01-19.26-0.03c-6.03-0.02-11.14-0.03-15.33-0.03v4.39
		c0.52,0,3.89-0.01,10.09-0.03c6.2-0.02,13.65-0.03,22.34-0.03c0,9.3,0.02,16.97,0.07,22.99c0.04,6.03,0.07,12.84,0.07,20.44
		c0,7.73-0.02,15.63-0.07,23.71c-0.04,8.08-0.07,13.43-0.07,16.05h5.24c0-2.62-0.02-7.89-0.07-15.82
		c-0.04-7.93-0.07-15.73-0.07-23.42c0-7.99,0.02-15.08,0.07-21.26c0.04-6.18,0.07-13.75,0.07-22.7
		C371.83,344.59,379.53,344.61,385.14,344.63 M476.7,429.3l3.86-3.14c-0.7-0.7-4.53-5.34-11.49-13.93
		c-6.96-8.59-13.12-16.4-18.49-23.44v-0.33c4.85-1.97,9.01-4.94,12.49-8.92c3.47-3.98,5.21-9.2,5.21-15.67
		c0-4.55-1.23-8.66-3.7-12.36c-2.47-3.69-5.62-6.41-9.47-8.16c-2.75-1.27-5.92-2.17-9.5-2.72c-3.58-0.55-7.14-0.82-10.68-0.82
		c-3.1,0-6.45,0.04-10.05,0.13c-3.6,0.09-5.62,0.13-6.06,0.13c0,15.69,0.02,26.45,0.07,32.29c0.04,5.83,0.07,9.85,0.07,12.03
		c0,11.23-0.02,20.62-0.07,28.16c-0.04,7.54-0.07,12.62-0.07,15.24h5.24c0-2.62-0.02-9.07-0.07-19.34
		c-0.04-10.27-0.07-18.4-0.07-24.39c0-2.62,0.01-7.91,0.03-15.86c0.02-7.96,0.05-16,0.1-24.13c0.48,0,1.79-0.03,3.93-0.1
		c2.14-0.07,4.06-0.1,5.77-0.1c3.54,0,6.93,0.24,10.19,0.72c3.25,0.48,6.08,1.33,8.48,2.56c3.23,1.66,5.81,3.98,7.73,6.95
		c1.92,2.97,2.88,6.49,2.88,10.55c0,3.37-0.5,6.17-1.51,8.42c-1.01,2.25-2.32,4.18-3.93,5.8c-2.19,2.18-4.4,3.89-6.65,5.11
		c-2.25,1.22-4.6,2.21-7.05,2.95l-0.07,0.59c9.52,12.33,17.12,22.06,22.82,29.21C472.35,423.89,475.7,428.07,476.7,429.3
		 M576.93,429.3l4.79-2.13c-2.18-4.85-8.22-18.26-18.11-40.24c-9.89-21.98-16.96-37.82-21.19-47.51h-3.8
		c-6.16,13.8-13.96,31.08-23.42,51.86c-9.46,20.78-14.9,32.74-16.35,35.89l4.49,2c0.83-1.79,2.63-5.84,5.4-12.15
		c2.77-6.31,17.44-39.23,21.1-47.52c3.67-8.3,7.05-15.89,10.15-22.79l0.13-0.03c2.83,6.25,6.09,13.51,9.79,21.79
		c3.7,8.28,18.96,42.62,21.29,47.96C573.52,421.78,575.43,426.07,576.93,429.3 M648.25,427.63c4.67,0.02,7.25,0.03,7.73,0.03v-4.39
		c-0.35,0-3.23,0.01-8.65,0.03c-5.42,0.02-11.79,0.03-19.13,0.03c-1.88,0-4.77-0.01-8.68-0.03c-3.91-0.02-6.69-0.03-8.35-0.03
		c0-0.44-0.02-5.26-0.06-14.48c-0.04-9.21-0.07-19.57-0.07-31.05c0-4.72,0.02-10.77,0.07-18.15c0.04-7.38,0.06-13.89,0.06-19.52
		h-5.24c0,2.62,0.02,7.18,0.07,13.69c0.04,6.51,0.07,15.96,0.07,28.37c0,7.42-0.02,14.99-0.07,22.7
		c-0.04,7.71-0.07,15.32-0.07,22.83c3.01,0,6.64-0.01,10.88-0.03s8.73-0.03,13.49-0.03C637.59,427.6,643.57,427.61,648.25,427.63
		 M780.94,344.66v-4.39c-0.57,0-4.16,0.01-10.78,0.03c-6.62,0.02-14.88,0.03-24.8,0.03c-6.81,0-13.23-0.01-19.26-0.03
		c-6.03-0.02-11.14-0.03-15.33-0.03v4.39c0.52,0,3.89-0.01,10.09-0.03c6.2-0.02,13.65-0.03,22.34-0.03c0,9.3,0.02,16.97,0.07,22.99
		c0.04,6.03,0.06,12.84,0.06,20.44c0,7.73-0.02,15.63-0.06,23.71c-0.04,8.08-0.07,13.43-0.07,16.05h5.24
		c0-2.62-0.02-7.89-0.06-15.82c-0.04-7.93-0.07-15.73-0.07-23.42c0-7.99,0.02-15.08,0.07-21.26c0.04-6.18,0.06-13.75,0.06-22.7
		c9.78,0,17.48,0.01,23.09,0.03C777.15,344.65,780.29,344.66,780.94,344.66"/>
</g>
</svg>
