<?xml version="1.0" encoding="utf-8"?>
<!-- Generator: Adobe Illustrator 24.3.0, SVG Export Plug-In . SVG Version: 6.00 Build 0)  -->
<svg version="1.1" id="Capa_1" xmlns="http://www.w3.org/2000/svg" xmlns:xlink="http://www.w3.org/1999/xlink" x="0px" y="0px"
	 viewBox="0 0 841.9 595.3" style="enable-background:new 0 0 841.9 595.3;" xml:space="preserve">
<style type="text/css">
	.st0{clip-path:url(#SVGID_2_);fill:#EC6608;}
	.st1{clip-path:url(#SVGID_2_);}
	.st2{clip-path:url(#SVGID_2_);fill:#C6C6C6;}
</style>
<g>
	<defs>
		<rect id="SVGID_1_" x="58" y="225.3" width="710.6" height="174.4"/>
	</defs>
	<clipPath id="SVGID_2_">
		<use xlink:href="#SVGID_1_"  style="overflow:visible;"/>
	</clipPath>
	<path class="st0" d="M683.2,386c0,5.8-0.1,9.8-0.1,12h4.5c0-2.2,0-6.5-0.1-12.7c0-6.2-0.1-15-0.1-26.4c0-4.1,0-9.2,0-15.4h-4.4
		c0,0.3,0,0.6,0,0.9c0,6.9,0.1,12.5,0.1,16.8C683.2,371.9,683.2,380.2,683.2,386 M687.6,335.3c0-4.6,0-8.8,0-12.5h-4.5
		c0,4.3,0,8.4,0,12.5H687.6z"/>
	<path class="st1" d="M218.5,399.3l4.1-1.8c-1.9-4.2-7-15.7-15.5-34.5c-8.5-18.8-14.5-32.4-18.2-40.7h-3.3
		c-5.3,11.8-12,26.6-20.1,44.5c-8.1,17.8-12.8,28.1-14,30.8l3.8,1.7c0.7-1.5,2.3-5,4.6-10.4c2.4-5.4,14.9-33.6,18.1-40.7
		c3.1-7.1,6-13.6,8.7-19.5l0.1,0c2.4,5.4,5.2,11.6,8.4,18.7c3.2,7.1,16.2,36.5,18.2,41.1C215.6,392.8,217.2,396.5,218.5,399.3
		 M296.8,340.6c0-4.7,0.1-10.6,0.1-17.8h-4.5c0,0.5,0,3.6,0.1,9.3c0,5.7,0.1,12.9,0.1,21.8c0,2.7,0,5.5,0,8.4c0,2.9,0,5.8,0,8.9
		c0,8.5-2.3,14.7-6.9,18.8c-4.6,4.1-10.4,6.1-17.5,6.1c-6.8,0-12.5-2.1-17.3-6.2c-4.7-4.1-7.1-10.4-7.1-18.7c0-3,0-6,0-8.9
		c0-2.9,0-5.7,0-8.4c0-8.9,0-16,0.1-21.5c0-5.4,0.1-8.6,0.1-9.6h-4.5c0,7.2,0,13.1,0.1,17.8c0,4.7,0.1,8.8,0.1,12.3
		c0,4.3,0,7.9,0,10.9c0,3,0,5.6,0,7.8c0,4.3,0.6,8.2,1.8,11.5c1.2,3.3,3,6.2,5.5,8.7c2.5,2.5,5.5,4.5,9.1,5.8
		c3.6,1.4,7.7,2.1,12.4,2.1c4.7,0,8.9-0.7,12.4-2.1c3.6-1.4,6.6-3.3,9-5.8c2.4-2.4,4.3-5.3,5.5-8.6c1.2-3.3,1.8-7.2,1.8-11.5
		c0-2.2,0-4.8,0-7.8c0-3,0-6.7,0-10.9C296.8,349.4,296.8,345.3,296.8,340.6 M327.7,349c-1.5-2.2-2.3-4.6-2.3-7.3
		c0-2.7,0.6-5,1.9-6.9c1.2-1.9,2.6-3.4,4.2-4.5c2.3-1.6,4.9-2.8,7.7-3.5c2.8-0.7,5.6-1.1,8.3-1.1c2.5,0,4.7,0.1,6.7,0.3
		c2,0.2,3.4,0.3,4,0.4l-0.3-4c-0.3,0-1.6-0.1-3.8-0.3c-2.2-0.1-4.4-0.2-6.6-0.2c-3.4,0-6.8,0.5-10.2,1.4c-3.3,1-6.2,2.3-8.5,4
		c-2.3,1.6-4.2,3.7-5.6,6c-1.4,2.4-2.1,5.1-2.1,8.3c0,4,1.2,7.4,3.5,10.1c2.3,2.7,5.8,5.2,10.5,7.4c1.1,0.5,2.6,1.2,4.7,2
		c2,0.8,3.6,1.5,4.7,2.1c4.7,2.4,7.8,4.9,9.4,7.5c1.6,2.6,2.4,5.1,2.4,7.7c0,3-0.7,5.6-2,7.6c-1.3,2.1-3.3,3.9-6,5.4
		c-2.2,1.3-4.8,2.2-7.7,2.8c-2.9,0.6-6,0.9-9.4,0.9c-3.1,0-5.6-0.1-7.7-0.3c-2-0.2-3.4-0.3-4-0.4l0.2,4c0.6,0.1,2,0.2,4.3,0.3
		c2.3,0.1,4.5,0.2,6.8,0.2c3.6,0,7.1-0.4,10.6-1.1c3.5-0.7,6.6-1.9,9.5-3.5c3-1.7,5.3-3.8,7-6.3c1.7-2.5,2.6-5.7,2.6-9.5
		c0-3.7-1.2-7.2-3.6-10.5c-2.4-3.3-6-6-10.8-8.4c-1.5-0.7-3.1-1.4-4.9-2.2c-1.8-0.7-3.3-1.4-4.4-2
		C332.2,353.3,329.2,351.1,327.7,349 M429.4,326.7c4.8,0,7.5,0,8.1,0v-3.8c-0.5,0-3.6,0-9.2,0c-5.7,0-12.8,0-21.3,0
		c-5.8,0-11.3,0-16.5,0c-5.2,0-9.5,0-13.1,0v3.8c0.4,0,3.3,0,8.6,0c5.3,0,11.7,0,19.1,0c0,8,0,14.5,0.1,19.7c0,5.2,0.1,11,0.1,17.5
		c0,6.6,0,13.4-0.1,20.3c0,6.9-0.1,11.5-0.1,13.8h4.5c0-2.2,0-6.8-0.1-13.6c0-6.8-0.1-13.5-0.1-20.1c0-6.9,0-12.9,0.1-18.2
		c0-5.3,0.1-11.8,0.1-19.5C418,326.7,424.6,326.7,429.4,326.7 M507.9,399.3l3.3-2.7c-0.6-0.6-3.9-4.6-9.8-11.9
		c-6-7.4-11.2-14.1-15.8-20.1v-0.3c4.2-1.7,7.7-4.2,10.7-7.6c3-3.4,4.5-7.9,4.5-13.4c0-3.9-1.1-7.4-3.2-10.6c-2.1-3.2-4.8-5.5-8.1-7
		c-2.4-1.1-5.1-1.9-8.1-2.3c-3.1-0.5-6.1-0.7-9.2-0.7c-2.7,0-5.5,0-8.6,0.1c-3.1,0.1-4.8,0.1-5.2,0.1c0,13.5,0,22.7,0.1,27.7
		c0,5,0.1,8.4,0.1,10.3c0,9.6,0,17.7-0.1,24.1c0,6.5-0.1,10.8-0.1,13.1h4.5c0-2.2,0-7.8-0.1-16.6c0-8.8-0.1-15.8-0.1-20.9
		c0-2.2,0-6.8,0-13.6c0-6.8,0-13.7,0.1-20.7c0.4,0,1.5,0,3.4-0.1c1.8-0.1,3.5-0.1,4.9-0.1c3,0,5.9,0.2,8.7,0.6
		c2.8,0.4,5.2,1.1,7.3,2.2c2.8,1.4,5,3.4,6.6,6c1.6,2.5,2.5,5.6,2.5,9c0,2.9-0.4,5.3-1.3,7.2c-0.9,1.9-2,3.6-3.4,5
		c-1.9,1.9-3.8,3.3-5.7,4.4c-1.9,1-3.9,1.9-6,2.5l-0.1,0.5c8.2,10.6,14.7,18.9,19.6,25S507,398.2,507.9,399.3 M593.8,399.3l4.1-1.8
		c-1.9-4.2-7-15.7-15.5-34.5c-8.5-18.8-14.5-32.4-18.2-40.7h-3.3c-5.3,11.8-12,26.6-20.1,44.5c-8.1,17.8-12.8,28.1-14,30.8l3.8,1.7
		c0.7-1.5,2.3-5,4.6-10.4c2.4-5.4,14.9-33.6,18.1-40.7c3.1-7.1,6-13.6,8.7-19.5l0.1,0c2.4,5.4,5.2,11.6,8.4,18.7
		c3.2,7.1,16.2,36.5,18.2,41.1C590.9,392.8,592.5,396.5,593.8,399.3 M654.9,397.8c4,0,6.2,0,6.6,0v-3.8c-0.3,0-2.8,0-7.4,0
		c-4.6,0-10.1,0-16.4,0c-1.6,0-4.1,0-7.4,0c-3.4,0-5.7,0-7.2,0c0-0.4,0-4.5-0.1-12.4c0-7.9-0.1-16.8-0.1-26.6c0-4,0-9.2,0.1-15.6
		c0-6.3,0.1-11.9,0.1-16.7h-4.5c0,2.2,0,6.2,0.1,11.7c0,5.6,0.1,13.7,0.1,24.3c0,6.4,0,12.9-0.1,19.5c0,6.6-0.1,13.1-0.1,19.6
		c2.6,0,5.7,0,9.3,0c3.6,0,7.5,0,11.6,0C645.8,397.8,650.9,397.8,654.9,397.8 M768.7,326.7v-3.8c-0.5,0-3.6,0-9.2,0
		c-5.7,0-12.8,0-21.3,0c-5.8,0-11.3,0-16.5,0c-5.2,0-9.5,0-13.1,0v3.8c0.4,0,3.3,0,8.6,0c5.3,0,11.7,0,19.1,0c0,8,0,14.5,0.1,19.7
		c0,5.2,0.1,11,0.1,17.5c0,6.6,0,13.4-0.1,20.3c0,6.9-0.1,11.5-0.1,13.8h4.5c0-2.2,0-6.8-0.1-13.6c0-6.8-0.1-13.5-0.1-20.1
		c0-6.9,0-12.9,0.1-18.2c0-5.3,0.1-11.8,0.1-19.5c8.4,0,15,0,19.8,0C765.4,326.7,768.1,326.7,768.7,326.7"/>
	<path class="st0" d="M210.9,296.6C210.9,296.6,210.9,296.6,210.9,296.6C210.9,296.6,210.9,296.6,210.9,296.6 M157,261
		c0.1,0.1,0.3,0.3,0.3,0.3C157.2,261.2,157.1,261.1,157,261 M205.1,271.6c0,1.7-1.3,3-3,3s-3-1.3-3-3c0-1.7,1.3-3,3-3
		c0.1,0,0.2,0,0.3,0c-1.1,0.2-1.9,1.1-1.9,2.3c0,1.3,1,2.3,2.3,2.3c1.2,0,2.1-0.9,2.3-2C205.1,271.3,205.1,271.5,205.1,271.6
		 M219.5,285.3c-1.2-13-11.8-19-19.9-21.8c-2.7-0.9-5.8-1.6-9.4-2.2c-0.5-0.6-6.3-8-14.2-9.3c3.1,1.3,5.2,4.4,5.2,7.9
		c0,4.7-3.8,8.6-8.6,8.6s-8.6-3.8-8.6-8.6c0-2.4,1-4.6,2.6-6.1c-5.5,2.8-9.1,7.6-9.1,7.6c0,0,4.2,8,10.1,8.1
		c5.5,0.1,12.7,0.5,15.5,3.1c1.8-1,4.2-2.6,7.3-5.2c1.7-1.4,2.2,3.9-0.1,7.5c-1.5,2.4-4.9,5.3-6.8,6.9c23,1.6,25.8,4.9,25.9,5
		c5.1,4.3,1.6,9.8,1.6,9.8s0,0,0,0c0,0,0,0.1,0,0.1c2.5,2.8,3,7.9,3,7.9S221.3,297.1,219.5,285.3"/>
	<path class="st1" d="M205.1,271.6c0-0.1,0-0.3,0-0.4c-0.1,1.1-1.1,2-2.3,2c-1.3,0-2.3-1-2.3-2.3c0-1.1,0.8-2.1,1.9-2.3
		c-0.1,0-0.2,0-0.3,0c-1.7,0-3,1.3-3,3c0,1.7,1.3,3,3,3C203.8,274.6,205.1,273.3,205.1,271.6 M209.3,286.8c-3.8-3.2-21-4.6-25.9-5
		c1.9-1.6,5.2-4.5,6.8-6.9c2.3-3.7,1.9-8.9,0.1-7.5c-3.2,2.5-5.6,4.1-7.3,5.2c-2.9-2.6-10-3-15.5-3.1c-6-0.1-10.1-8.1-10.1-8.1
		s-0.2-0.2-0.3-0.3c0,0.1,0.1,0.1,0.3,0.3c0,0,3.6-4.8,9.1-7.6c-1.6,1.6-2.6,3.7-2.6,6.1c0,4.7,3.8,8.6,8.6,8.6
		c4.7,0,8.6-3.8,8.6-8.6c0-3.5-2.1-6.6-5.2-7.9c8,1.4,13.8,8.7,14.2,9.3c6.1,1,10.8,2.5,14.5,4.3c-1.4-11.9-9.4-40.3-53.9-40.3
		c-25.6,0-49.9,15.7-49.9,15.7c64-7.2,82.7,8.8,82.7,8.8s-34.7-1.9-51.2-1.9c-13.3,0-43.5,3.6-43.5,3.6
		c-7.2,6.4-16.6,26.1-20.9,33.3c-2.7,4.6-6.4,10.9-9.8,16.7l19,19c9.8-10.1,29.1-29.1,49.8-43c0,0,45.1,0.1,46,0c0,0-0.1,0-0.1,0
		c0.1,0,0.1,0,0.1,0c6.2,0.3,1.8,12.5-11,26.6c-1.5,1.7-0.7,2.9,0.7,3.8c1.2,0.5,2.3,1,3.3,1.3c1.4,0.4,2.5,0.5,2.5,0.5
		s8.6-13.8,13-24.7c5.5,0,22.1,1.3,25.7,3.5c4.7,2.8,3.7,7.9,3.7,7.9S214.4,291.1,209.3,286.8"/>
	<path class="st2" d="M168.4,309.9c-1.1-0.2-4.1-1.1-4.2-1.1c-13.9-0.4-49.1-23.8-37.6-31c-27.6,18.4-54,47.5-56.1,49.8l55.8,55.8
		C127.8,377.4,139.6,333.9,168.4,309.9 M207.2,288.7c-3.6-2.1-20.3-3.5-25.7-3.5c-4.3,10.6-12.7,24.2-13,24.6
		c9.1-7.5,19.9-13.2,32.6-15.1c1.7,1.3,4.1,2.2,6.9,2.2c1,0,2-0.1,2.9-0.3C210.9,296.6,211.9,291.5,207.2,288.7"/>
</g>
</svg>
