<svg id="Capa_1" data-name="Capa 1" xmlns="http://www.w3.org/2000/svg" viewBox="0 0 841.89 595.28"><defs><style>.cls-1{fill:#ec6608;}.cls-2{fill:#1d1d1b;}</style></defs><path class="cls-1" d="M389.42,318.3l.11.08h15.73l-31.92-50.12Zm47.32.08h15.73l.11-.08,16.08-50Zm-15.15-79.6,7.74,5.78L421,260.93l-8.32-16.37,7.7-5.78H398l1.19,13L421,265.58l21.82-13.76,1.18-13Zm-7-17.17L405.47,224l-7.26,11.58h45.58L436.44,224l-8.66-2.41ZM133.28,243.44,205.83,199l-9.37-4ZM636.17,199l72.55,44.48L645.54,195ZM94.92,259.72l95.14-67.45-9-3.82Zm557-67.45,95.14,67.45-86.14-71.27ZM60.46,274.35,175,185.88l-8.19-3.47ZM667,185.88l114.57,88.47L675.16,182.41ZM373.6,265.06l3.06-7.2-206.1-79Zm91.74-7.2,3.05,7.2,203.05-86.18Zm-87.25-3.37,2.46-5.79L185.61,174.84Zm83.36-5.79,2.46,5.79,192.48-79.65ZM382,245.34l2.58-6.08L201.34,170.63Zm75.46-6.08,2.58,6.08,180.64-74.71ZM386,235.86,394,217,218,166.18ZM448,217l8,18.83,168-69.68Z"/><path class="cls-1" d="M681.19,413.77q-.06,10.1-.07,14h5.25q0-3.93-.07-14.84t-.07-30.82q0-7.12.06-18h-5.1v1.1q.06,12.12.07,19.59,0,18.85-.07,28.95m5.14-59.09c0-5.35,0-10.24,0-14.61h-5.25c0,5,0,9.84,0,14.61Z"/><path class="cls-2" d="M139.14,429.3l4.79-2.13q-3.28-7.28-18.11-40.24t-21.2-47.51h-3.8Q91.6,360.1,77.4,391.28T61.06,427.17l4.49,2Q66.79,426.49,71,417c2.76-6.32,17.43-39.23,21.1-47.53s7-15.89,10.15-22.79l.13,0q4.24,9.36,9.79,21.79c3.69,8.28,18.95,42.62,21.28,48s4.24,9.64,5.74,12.87m91.39-68.43q.06-8.22.06-20.8h-5.24c0,.62,0,4.22.07,10.81s.06,15.07.06,25.42q0,4.72,0,9.76c0,3.37,0,6.81,0,10.35q0,14.8-8,21.92T197,425.43a29.55,29.55,0,0,1-20.15-7.24q-8.28-7.23-8.28-21.78c0-3.54,0-7,0-10.35s0-6.61,0-9.76q0-15.53.07-25.06t.06-11.17h-5.24q0,12.58.07,20.8t.06,14.32q0,7.47,0,12.74c0,3.52,0,6.56,0,9.14a38.71,38.71,0,0,0,2.13,13.39A27.9,27.9,0,0,0,172,420.59a29.87,29.87,0,0,0,10.58,6.81A40,40,0,0,0,197,429.82a39.46,39.46,0,0,0,14.48-2.45A30.67,30.67,0,0,0,222,420.59a27.4,27.4,0,0,0,6.39-10.09,39.06,39.06,0,0,0,2.13-13.43c0-2.58,0-5.62,0-9.14s0-7.76,0-12.74q0-6.09.07-14.32m36,9.76a15.51,15.51,0,0,1-.49-16.57,18.91,18.91,0,0,1,4.85-5.23,28,28,0,0,1,9-4.08,39.12,39.12,0,0,1,9.67-1.27q4.32,0,7.86.3c2.36.19,3.93.36,4.72.49l-.4-4.65c-.35-.05-1.82-.15-4.42-.3s-5.16-.23-7.7-.23a42.88,42.88,0,0,0-11.85,1.67,32.29,32.29,0,0,0-10,4.62,23.25,23.25,0,0,0-6.55,7,18.4,18.4,0,0,0-2.49,9.7,17.5,17.5,0,0,0,4,11.75q4,4.76,12.21,8.68c1.27.62,3.08,1.4,5.44,2.36s4.19,1.79,5.5,2.49q8.19,4.2,10.94,8.71a17.16,17.16,0,0,1,2.76,9,16.14,16.14,0,0,1-2.33,8.91,19.69,19.69,0,0,1-7,6.3,31,31,0,0,1-9,3.27,54.41,54.41,0,0,1-10.94,1q-5.37,0-8.94-.36c-2.38-.24-3.92-.4-4.62-.49l.26,4.65q1.05.14,5,.36t7.93.23a61.23,61.23,0,0,0,12.35-1.24,36.6,36.6,0,0,0,11-4.13,25.35,25.35,0,0,0,8.22-7.4,19.12,19.12,0,0,0,3-11.14,20.16,20.16,0,0,0-4.23-12.25q-4.23-5.7-12.61-9.76-2.62-1.24-5.77-2.56c-2.09-.87-3.82-1.63-5.17-2.29q-7.8-3.79-10.45-7.57m118.59-26,9.4,0v-4.39l-10.78,0q-9.92,0-24.79,0-10.23,0-19.26,0l-15.33,0v4.39l10.09,0q9.3,0,22.34,0,0,14,.06,23t.07,20.44q0,11.6-.07,23.71t-.06,16.05h5.24q0-3.93-.07-15.82t-.06-23.42q0-12,.06-21.26t.07-22.7q14.67,0,23.09,0M476.7,429.3l3.86-3.15q-1-1-11.48-13.93t-18.49-23.44v-.33a32.5,32.5,0,0,0,12.48-8.91q5.22-6,5.21-15.67a21.77,21.77,0,0,0-3.7-12.36,22.39,22.39,0,0,0-9.46-8.16,35.45,35.45,0,0,0-9.5-2.72,71.54,71.54,0,0,0-10.68-.82c-3.1,0-6.45.05-10.06.13s-5.62.13-6.06.13q0,23.54.07,32.29t.07,12q0,16.85-.07,28.16t-.07,15.24h5.25q0-3.93-.07-19.34t-.07-24.39q0-3.93,0-15.86t.1-24.13c.48,0,1.79,0,3.93-.1s4.06-.1,5.76-.1a68.46,68.46,0,0,1,10.19.73,27.52,27.52,0,0,1,8.48,2.55,19.82,19.82,0,0,1,7.73,7A19,19,0,0,1,463,364.66a20.77,20.77,0,0,1-1.5,8.42,19.12,19.12,0,0,1-3.94,5.8A29.31,29.31,0,0,1,451,384,38.21,38.21,0,0,1,443.9,387l-.06.59q14.27,18.48,22.81,29.2T476.7,429.3m100.23,0,4.79-2.13q-3.29-7.28-18.12-40.24t-21.19-47.51h-3.8q-9.24,20.68-23.42,51.86t-16.34,35.89l4.49,2q1.25-2.69,5.39-12.15c2.77-6.32,17.44-39.23,21.11-47.53s7-15.89,10.15-22.79l.13,0q4.25,9.36,9.78,21.79c3.7,8.28,19,42.62,21.29,48s4.24,9.64,5.74,12.87m71.32-1.67,7.73,0v-4.39l-8.65,0q-8.13,0-19.13,0-2.82,0-8.68,0l-8.35,0q0-.64-.07-14.48T611,377.74q0-7.07.06-18.14t.07-19.53h-5.24q0,3.93.06,13.7t.07,28.36q0,11.14-.07,22.7t-.06,22.83l10.87,0q6.36,0,13.5,0,10.94,0,18,0m132.69-83v-4.39l-10.78,0q-9.92,0-24.79,0-10.22,0-19.26,0l-15.33,0v4.39l10.09,0q9.3,0,22.34,0,0,14,.06,23t.07,20.44q0,11.6-.07,23.71t-.06,16.05h5.24q0-3.93-.07-15.82t-.06-23.42q0-12,.06-21.26t.07-22.7q14.67,0,23.09,0l9.4,0"/></svg>